<?xml version="1.0" encoding="utf-8"?>
<!-- Generator: Adobe Illustrator 19.2.1, SVG Export Plug-In . SVG Version: 6.00 Build 0)  -->
<svg version="1.1" id="Layer_1" xmlns="http://www.w3.org/2000/svg"  x="0px" y="0px"
	 viewBox="0 0 715 109" style="enable-background:new 0 0 715 109;" xml:space="preserve">
<style type="text/css">
	.st0{fill:#4DA32F;}
	.st1{fill:#FFFFFF;}
	.st2{fill:#1E3866;}
</style>
<path class="st0" d="M6,6c-8,8-8.1,88.9,0,97c8,8,88.9,8.1,97,0c8.1-8.1,8-89,0-97C95.2-1.9,14.1-2.1,6,6 M91,66.4H66.5V91H42.3
	V66.4H17.7V42.2h24.6V17.6h24.2v24.6H91V66.4z"/>
<polygon class="st1" points="66.5,17.6 42.3,17.6 42.3,42.2 17.7,42.2 17.7,66.4 42.3,66.4 42.3,91 66.5,91 66.5,66.4 91,66.4
	91,42.2 66.5,42.2 "/>
<path class="st0" d="M715,81.7h-10.5c-3.1,0-5.3-0.3-6.6-1.4c-1.8-1.5-1.6-5-1.8-10.4l0-60.2h-14.6c-5.1,9.1-13.3,10.5-23.5,11v10
	c5.6,0.4,11.7,1.1,13.9,2.2c0,0,2.5,0.4,2.8,4.8c1.3,19.1,1.1,24,0.5,34.3c-0.2,4.1-0.8,7.3-2.2,8.4c-1.7,1.4-4.2,1.5-6.7,1.5h-9.7
	v14.5H715V81.7z"/>
<path class="st2" d="M266.5,27.8h-15.3v25.2h15.3c7.8,0,14.9-2.2,14.9-12.3C281.4,31.2,274.3,27.8,266.5,27.8 M271.9,68.6h-20.7
	v27.7h-20.3V13.4h41c15.1,0,27.3,11.8,27.3,26.9C299.2,55.4,288.8,68.6,271.9,68.6"/>
<path class="st2" d="M352.6,80.1c-14.9,0-25.7-10.6-25.7-25.2c0-14.6,10.8-25.2,25.7-25.2c15,0,25.8,10.6,25.8,25.2
	C378.4,69.5,367.6,80.1,352.6,80.1 M352.6,12.5c-25.2,0-44.2,18.2-44.2,42.4c0,24.2,18.9,42.4,44,42.4c29.2,0,44.5-21.3,44.5-42.4
	C396.9,30.4,378.2,12.5,352.6,12.5"/>
<polygon class="st2" points="400.3,13.5 400.3,30.5 426.5,30.5 426.5,96.3 444.6,96.3 444.6,30.5 470.7,30.5 470.7,13.5 "/>
<path class="st2" d="M173.5,42.5c2.6,5.9,9.5,21.3,9.5,21.3h-18.4C164.6,63.8,171,48.4,173.5,42.5 M197.7,96.3h19l-37-82.9h-12.4
	l-35.6,82.9h19c0,0,5.2-10.8,8-17.3h30.7C192.4,85.5,197.7,96.3,197.7,96.3"/>
<polygon class="st2" points="505.2,63.1 539.8,63.1 539.8,46 505.2,46 505.2,30.5 540.9,30.5 540.9,13.5 487.1,13.5 487.1,96.3
	541.9,96.3 541.9,79.3 505.2,79.3 "/>
<path class="st2" d="M591,52.7c4.1-4.5,36.1-39.3,36.1-39.3h-23.4c0,0-18.5,20.1-26.6,28.9V13.5H559v82.8h18.1V63.9
	c8.7,8.4,33.4,32.4,33.4,32.4h25.4C635.9,96.3,595.4,57.1,591,52.7"/>
</svg>
