<svg xmlns="http://www.w3.org/2000/svg" viewBox="0 0 122 114" fill="none">
    <path
        d="M.653 19.251a5 5 0 0 1 4.304-5.61L103.616.653a5 5 0 0 1 5.609 4.304l11.748 89.23a5 5 0 0 1-4.305 5.61L18.01 112.786a5 5 0 0 1-5.61-4.305L.653 19.251Z"
        fill="#1A1A1A" />
    <path
        d="M33.488 62.596V82H21.32V29.548h17.064c3.792 0 7.02.396 9.684 1.188 2.688.768 4.872 1.848 6.552 3.24 1.704 1.392 2.94 3.036 3.708 4.932.768 1.896 1.152 3.96 1.152 6.192 0 1.704-.228 3.312-.684 4.824a14.597 14.597 0 0 1-2.052 4.212c-.888 1.272-1.992 2.412-3.312 3.42-1.296 1.008-2.796 1.836-4.5 2.484.816.408 1.572.912 2.268 1.512.72.6 1.344 1.332 1.872 2.196L64.232 82H53.216c-2.04 0-3.504-.768-4.392-2.304l-8.712-15.228c-.384-.672-.84-1.152-1.368-1.44-.504-.288-1.224-.432-2.16-.432h-3.096Zm0-8.388h4.896c1.656 0 3.06-.204 4.212-.612 1.176-.432 2.136-1.02 2.88-1.764a6.67 6.67 0 0 0 1.62-2.592c.336-1.008.504-2.088.504-3.24 0-2.304-.756-4.104-2.268-5.4-1.488-1.296-3.804-1.944-6.948-1.944h-4.896v15.552Zm51.699-10.116c2.472 0 4.728.384 6.768 1.152 2.064.768 3.828 1.884 5.292 3.348 1.488 1.464 2.64 3.264 3.456 5.4.84 2.112 1.26 4.512 1.26 7.2 0 .84-.036 1.524-.108 2.052-.072.528-.204.948-.396 1.26a1.5 1.5 0 0 1-.792.648c-.312.12-.72.18-1.224.18H77.915c.36 3.12 1.308 5.388 2.844 6.804 1.536 1.392 3.516 2.088 5.94 2.088 1.296 0 2.412-.156 3.348-.468.936-.312 1.764-.66 2.484-1.044.744-.384 1.416-.732 2.016-1.044a4.295 4.295 0 0 1 1.944-.468c.888 0 1.56.324 2.016.972l3.24 3.996c-1.152 1.32-2.4 2.4-3.744 3.24a20.002 20.002 0 0 1-4.104 1.944 21.724 21.724 0 0 1-4.212.936 29.272 29.272 0 0 1-3.996.288c-2.616 0-5.076-.42-7.38-1.26a17.348 17.348 0 0 1-6.012-3.816c-1.704-1.68-3.06-3.768-4.068-6.264-.984-2.496-1.476-5.4-1.476-8.712 0-2.496.42-4.86 1.26-7.092.864-2.232 2.088-4.188 3.672-5.868 1.608-1.68 3.54-3.012 5.796-3.996 2.28-.984 4.848-1.476 7.704-1.476Zm.216 7.704c-2.136 0-3.804.612-5.004 1.836-1.2 1.2-1.992 2.94-2.376 5.22h13.932c0-.888-.12-1.752-.36-2.592a5.756 5.756 0 0 0-1.116-2.232c-.504-.672-1.176-1.212-2.016-1.62-.84-.408-1.86-.612-3.06-.612Z"
        fill="#fff" />
</svg>